# xmcd
#
# Track frame offsets: 
#        150
#        12522
#        24992
#        37677
#        51482
#        62590
#        74337
#        86782
#        99242
#        109302
#        121745
#        134522
#        147680
#        160955
#        172605
#        183570
#        195970
#        206917
#        218785
#        230430
#
# Disc length: 3229 seconds
#
# Revision: 9
# Processed by: cddbd v1.5.2PL0 Copyright (c) Steve Scherf et al.
# Submitted via: ExactAudioCopyFreeDBPlugin 1.0
#
DISCID=1b0c9b14
DTITLE=Hank Williams - 20 Of Hank Williams' Greatest Hits
DYEAR=1997
DGENRE=Country
TTITLE0=Your Cheatin' Heart
TTITLE1=Move It On Over
TTITLE2=I'm So Lonesome I Could Cry
TTITLE3=Ramblin' Man
TTITLE4=My Heart Would Know
TTITLE5=Kaw-Liga
TTITLE6=Cold, Cold Heart
TTITLE7=Lovesick Blues
TTITLE8=Honky Tonk Blues
TTITLE9=Honky Tonkin'
TTITLE10=There'll Be No Teardrops Tonight
TTITLE11=Jambalaya (On The Bayou)
TTITLE12=Hey Good Lookin'
TTITLE13=Window Shopping
TTITLE14=I Can't Help It (If I'm Still In Love With You)
TTITLE15=Half As Much
TTITLE16=Why Don't You Love Me
TTITLE17=You Win Again
TTITLE18=Baby, We're Really In Love
TTITLE19=Take These Chains From My Heart
EXTD=Hank Williams' Greatest Hits YEAR: 1997
EXTT0=
EXTT1=
EXTT2=
EXTT3=
EXTT4=
EXTT5=
EXTT6=
EXTT7=
EXTT8=
EXTT9=
EXTT10=
EXTT11=
EXTT12=
EXTT13=
EXTT14=
EXTT15=
EXTT16=
EXTT17=
EXTT18=
EXTT19=
PLAYORDER=
